<svg id="visual" viewBox="0 0 900 450" width="900" height="450" xmlns="http://www.w3.org/2000/svg" xmlns:xlink="http://www.w3.org/1999/xlink" version="1.1"><path d="M0 114L15 104.2C30 94.3 60 74.7 90 76.8C120 79 150 103 180 109.8C210 116.7 240 106.3 270 98.2C300 90 330 84 360 75C390 66 420 54 450 59.2C480 64.3 510 86.7 540 85.2C570 83.7 600 58.3 630 47.8C660 37.3 690 41.7 720 55.2C750 68.7 780 91.3 810 95.8C840 100.3 870 86.7 885 79.8L900 73L900 0L885 0C870 0 840 0 810 0C780 0 750 0 720 0C690 0 660 0 630 0C600 0 570 0 540 0C510 0 480 0 450 0C420 0 390 0 360 0C330 0 300 0 270 0C240 0 210 0 180 0C150 0 120 0 90 0C60 0 30 0 15 0L0 0Z" fill="#ffffff"></path><path d="M0 145L15 136.8C30 128.7 60 112.3 90 128.8C120 145.3 150 194.7 180 214.8C210 235 240 226 270 213.3C300 200.7 330 184.3 360 185.8C390 187.3 420 206.7 450 207.3C480 208 510 190 540 173.5C570 157 600 142 630 130.8C660 119.7 690 112.3 720 125.8C750 139.3 780 173.7 810 201.3C840 229 870 250 885 260.5L900 271L900 71L885 77.8C870 84.7 840 98.3 810 93.8C780 89.3 750 66.7 720 53.2C690 39.7 660 35.3 630 45.8C600 56.3 570 81.7 540 83.2C510 84.7 480 62.3 450 57.2C420 52 390 64 360 73C330 82 300 88 270 96.2C240 104.3 210 114.7 180 107.8C150 101 120 77 90 74.8C60 72.7 30 92.3 15 102.2L0 112Z" fill="#f8f8f8"></path><path d="M0 213L15 201.7C30 190.3 60 167.7 90 175.2C120 182.7 150 220.3 180 239.2C210 258 240 258 270 246C300 234 330 210 360 208.5C390 207 420 228 450 237C480 246 510 243 540 231.7C570 220.3 600 200.7 630 187.2C660 173.7 690 166.3 720 173.2C750 180 780 201 810 223.5C840 246 870 270 885 282L900 294L900 269L885 258.5C870 248 840 227 810 199.3C780 171.7 750 137.3 720 123.8C690 110.3 660 117.7 630 128.8C600 140 570 155 540 171.5C510 188 480 206 450 205.3C420 204.7 390 185.3 360 183.8C330 182.3 300 198.7 270 211.3C240 224 210 233 180 212.8C150 192.7 120 143.3 90 126.8C60 110.3 30 126.7 15 134.8L0 143Z" fill="#f1f1f1"></path><path d="M0 271L15 262C30 253 60 235 90 241.8C120 248.7 150 280.3 180 300.7C210 321 240 330 270 323.2C300 316.3 330 293.7 360 283.8C390 274 420 277 450 278.5C480 280 510 280 540 270.3C570 260.7 600 241.3 630 233.8C660 226.3 690 230.7 720 247.2C750 263.7 780 292.3 810 313.3C840 334.3 870 347.7 885 354.3L900 361L900 292L885 280C870 268 840 244 810 221.5C780 199 750 178 720 171.2C690 164.3 660 171.7 630 185.2C600 198.7 570 218.3 540 229.7C510 241 480 244 450 235C420 226 390 205 360 206.5C330 208 300 232 270 244C240 256 210 256 180 237.2C150 218.3 120 180.7 90 173.2C60 165.7 30 188.3 15 199.7L0 211Z" fill="#f1f1f1"></path><path d="M0 289L15 289C30 289 60 289 90 303.3C120 317.7 150 346.3 180 356.8C210 367.3 240 359.7 270 352.2C300 344.7 330 337.3 360 331.3C390 325.3 420 320.7 450 321.3C480 322 510 328 540 315.3C570 302.7 600 271.3 630 263.2C660 255 690 270 720 288.7C750 307.3 780 329.7 810 349.2C840 368.7 870 385.3 885 393.7L900 402L900 359L885 352.3C870 345.7 840 332.3 810 311.3C780 290.3 750 261.7 720 245.2C690 228.7 660 224.3 630 231.8C600 239.3 570 258.7 540 268.3C510 278 480 278 450 276.5C420 275 390 272 360 281.8C330 291.7 300 314.3 270 321.2C240 328 210 319 180 298.7C150 278.3 120 246.7 90 239.8C60 233 30 251 15 260L0 269Z" fill="#f8f8f8"></path><path d="M0 451L15 451C30 451 60 451 90 451C120 451 150 451 180 451C210 451 240 451 270 451C300 451 330 451 360 451C390 451 420 451 450 451C480 451 510 451 540 451C570 451 600 451 630 451C660 451 690 451 720 451C750 451 780 451 810 451C840 451 870 451 885 451L900 451L900 400L885 391.7C870 383.3 840 366.7 810 347.2C780 327.7 750 305.3 720 286.7C690 268 660 253 630 261.2C600 269.3 570 300.7 540 313.3C510 326 480 320 450 319.3C420 318.7 390 323.3 360 329.3C330 335.3 300 342.7 270 350.2C240 357.7 210 365.3 180 354.8C150 344.3 120 315.7 90 301.3C60 287 30 287 15 287L0 287Z" fill="#ffffff"></path></svg>