<svg id="visual" viewBox="0 0 900 450" width="900" height="450" xmlns="http://www.w3.org/2000/svg" xmlns:xlink="http://www.w3.org/1999/xlink" version="1.1"><path d="M0 64L150 46L300 37L450 46L600 60L750 55L900 82L900 0L750 0L600 0L450 0L300 0L150 0L0 0Z" fill="#ffffff"></path><path d="M0 114L150 123L300 87L450 100L600 118L750 141L900 150L900 80L750 53L600 58L450 44L300 35L150 44L0 62Z" fill="#e5e5e5"></path><path d="M0 231L150 213L300 276L450 213L600 222L750 267L900 244L900 148L750 139L600 116L450 98L300 85L150 121L0 112Z" fill="#cccccc"></path><path d="M0 343L150 357L300 366L450 357L600 366L750 375L900 370L900 242L750 265L600 220L450 211L300 274L150 211L0 229Z" fill="#cccccc"></path><path d="M0 397L150 415L300 415L450 393L600 420L750 420L900 402L900 368L750 373L600 364L450 355L300 364L150 355L0 341Z" fill="#e5e5e5"></path><path d="M0 451L150 451L300 451L450 451L600 451L750 451L900 451L900 400L750 418L600 418L450 391L300 413L150 413L0 395Z" fill="#ffffff"></path></svg>