<svg width="489" height="174" viewBox="0 0 489 174" fill="none" xmlns="http://www.w3.org/2000/svg">
<rect x="4" y="151" width="480" height="10" fill="#00A858"/>
<path d="M40.5211 114.168H33.7911C30.259 114.168 27.5383 114.846 25.6291 116.202C23.7199 117.559 22.7653 119.297 22.7653 121.416C22.7653 125.74 24.3678 128 30 128C32.9593 128 36.464 127.096 38.0869 125.486C39.7097 123.875 40.5211 121.671 40.5211 118.873V114.168ZM8.5892 95.5V79C14.3169 76.1175 20.5696 75 31.3568 75C41.6667 75 49.3513 76.9923 54.4108 80.9769C59.4703 84.8767 62 90.9807 62 99.289V140.618H41.5235V132.734C38.4687 138.245 32.4546 141 23.4812 141C16.4171 141 11.0094 140.561 7 137C3.08607 133.439 0 127.841 0 122.5C0 116.311 3.52973 110.391 8.5892 107C13.7441 103.524 19.9765 102 30 102H40.5211V98.2717C40.5211 92.8459 36.464 90.1329 28.3498 90.1329C20.5219 90.1329 15.2715 91.6002 8.5892 95.5Z" fill="#F6893B"/>
<path d="M170.521 114.168H163.791C160.259 114.168 157.538 114.846 155.629 116.202C153.72 117.559 152.765 119.297 152.765 121.416C152.765 125.74 154.368 128 160 128C162.959 128 166.464 127.096 168.087 125.486C169.71 123.875 170.521 121.671 170.521 118.873V114.168ZM138.589 95.5V79C144.317 76.1175 150.57 75 161.357 75C171.667 75 179.351 76.9923 184.411 80.9769C189.47 84.8767 192 90.9807 192 99.289V140.618H171.523V132.734C168.469 138.245 162.455 141 153.481 141C146.417 141 141.009 140.561 137 137C133.086 133.439 130 127.841 130 122.5C130 116.311 133.53 110.391 138.589 107C143.744 103.524 149.977 102 160 102H170.521V98.2717C170.521 92.8459 166.464 90.1329 158.35 90.1329C150.522 90.1329 145.272 91.6002 138.589 95.5Z" fill="#A8D046"/>
<path fill-rule="evenodd" clip-rule="evenodd" d="M130 50H107.76V85.4811C102 78.5 93 77.5 89.5 77.5C83 77.5 76.2222 78.629 70.7752 84.5C65.3282 90.371 62 98.4783 62 108.689C62 117.793 63.5917 126.621 68.7752 133.173C74.0465 139.724 81.031 141 89.7287 141C98.6021 141 105.279 139.384 109.76 132.151V141.234H130V50ZM95.5 126C102.404 126 108 119.06 108 110.5C108 101.94 102.404 95 95.5 95C88.5964 95 83 101.94 83 110.5C83 119.06 88.5964 126 95.5 126Z" fill="#F6893B"/>
<path d="M234.472 119.812L234.472 119.812L234.463 119.823C232.681 121.988 230.165 123.178 226.5 123.178C223.005 123.178 220.7 122.062 219.12 120.101C217.462 118.043 216.404 114.755 216.404 109.78C216.404 105.132 217.476 101.904 219.251 99.7251C220.959 97.6271 223.298 96.5085 226.641 96.5085C230.616 96.5085 232.793 97.6954 234.143 99.5786C235.654 101.685 236.552 105.227 236.552 110.797C236.552 115.06 236.249 117.673 234.472 119.812ZM240.582 75.6356H237.582V78.6356V79.6455C233.348 76.5234 228.047 75 221.853 75C212.181 75 204.122 78.2999 197.96 84.9936L197.957 84.9968C191.934 91.5587 189 99.859 189 109.653C189 120.527 191.974 129.24 198.403 135.236L198.412 135.245L198.421 135.253C204.71 141.023 212.243 143.924 220.867 143.924C227.377 143.924 232.953 142.507 237.381 139.527C236.957 142.38 235.884 144.264 234.424 145.494C232.412 147.189 228.771 148.347 222.839 148.347C213.776 148.347 206.347 146.11 200.375 141.797L195.618 138.362V144.229V163.169V165.147L197.436 165.927C205.395 169.339 214.59 171 224.951 171C235.8 171 245.064 168.232 252.537 162.506C260.292 156.652 264 147.916 264 136.856V78.6356V75.6356H261H240.582Z" fill="#A8D046" stroke="white" stroke-width="6"/>
<path d="M284.516 77.3765V89.1726C285.828 85.4915 287.983 82.5634 290.98 80.3882C294.072 78.1294 297.632 77 301.66 77C303.908 77 305.688 77.1673 307 77.502V94.8196C304.752 93.8993 302.175 93.4392 299.271 93.4392C294.868 93.4392 291.308 94.9033 288.592 97.8314C285.875 100.676 284.516 104.482 284.516 109.251V141H264L264.141 77.3765H284.516Z" fill="#A8D046"/>
<path d="M337.569 141C326.555 141 318.04 138.059 312.024 132.176C306.008 126.21 303 118.588 303 109.308C303 99.6138 306.147 91.6597 312.441 85.4455C318.734 79.1485 327.111 76 337.569 76C348.491 76 356.96 79.0242 362.976 85.0727C368.992 91.1211 372 98.8266 372 108.189C372 117.718 368.946 125.589 362.837 131.803C356.821 137.934 348.398 141 337.569 141ZM337.431 90.2925C332.988 90.2925 329.656 91.9911 327.435 95.3881C325.213 98.7852 324.103 103.177 324.103 108.562C324.103 113.948 325.213 118.38 327.435 121.86C329.748 125.257 333.173 126.956 337.708 126.956C342.151 126.956 345.437 125.299 347.565 121.985C349.787 118.588 350.897 114.196 350.897 108.811C350.897 96.4653 346.408 90.2925 337.431 90.2925Z" fill="#A8D046"/>
<path d="M418 137C409.09 137 400.446 135.255 392.31 131.814C388.399 130.16 384.627 128.112 381.099 125.729C377.604 123.368 374.318 120.656 371.331 117.669C368.344 114.682 365.633 111.396 363.271 107.901C360.888 104.372 358.84 100.6 357.186 96.6901C353.745 88.5538 352 79.9106 352 71.0005C352 62.0903 353.745 53.4468 357.186 45.3103C358.84 41.3994 360.888 37.6274 363.271 34.0992C365.632 30.6045 368.344 27.3181 371.331 24.331C374.318 21.3443 377.604 18.6326 381.099 16.2715C384.627 13.8878 388.399 11.8404 392.31 10.1864C400.446 6.7449 409.09 5 418 5C426.91 5 435.553 6.7449 443.69 10.1864C447.6 11.8404 451.372 13.8878 454.901 16.2715C458.396 18.6326 461.682 21.3443 464.669 24.331C467.656 27.3181 470.367 30.6045 472.728 34.0992C475.112 37.6275 477.159 41.3995 478.814 45.3103C482.255 53.4468 484 62.0903 484 71.0005C484 79.9106 482.255 88.5538 478.814 96.6901C477.159 100.601 475.112 104.373 472.728 107.901C470.367 111.396 467.656 114.682 464.669 117.669C461.682 120.656 458.396 123.367 454.901 125.729C451.372 128.112 447.6 130.16 443.69 131.814C435.553 135.255 426.91 137 418 137ZM408.452 92.5956L418.022 124.611L418.545 126.359L419.068 124.611L428.719 92.3307L448.194 100.487L449.422 101.001L448.908 99.7732L441.123 81.1832L471.61 72.0679L473.358 71.5453L471.61 71.0228L440.329 61.6709L448.908 41.1841L449.422 39.9558L448.194 40.4703L428.152 48.8652L419.068 18.4798L418.545 16.7317L418.022 18.4798L409.018 48.6001L389.607 40.4703L388.378 39.9558L388.893 41.1841L397.394 61.4823L365.48 71.0228L363.732 71.5453L365.48 72.0679L396.599 81.3717L388.893 99.7732L388.378 101.001L389.606 100.487L408.452 92.5956Z" fill="url(#paint0_linear_3_56)"/>
<circle cx="418" cy="71" r="68.5" stroke="white" stroke-width="5"/>
<path d="M477.842 135.564V137.476H478.632C479.246 137.476 479.553 137.147 479.553 136.489C479.553 135.872 479.202 135.564 478.5 135.564H477.842ZM476.197 134.269H478.401C480.309 134.269 481.263 135.009 481.263 136.489C481.263 137.435 480.857 138.093 480.046 138.463L481.954 141.3H479.947L478.336 138.74H477.842V141.3H476.197V134.269ZM474.421 141.885C475.452 142.852 476.822 143.335 478.533 143.335C480.243 143.335 481.603 142.852 482.612 141.885C483.643 140.899 484.158 139.614 484.158 138.031C484.158 136.427 483.643 135.132 482.612 134.145C481.603 133.159 480.243 132.665 478.533 132.665C476.822 132.665 475.452 133.159 474.421 134.145C473.39 135.132 472.875 136.427 472.875 138.031C472.875 139.614 473.39 140.899 474.421 141.885ZM473.105 132.974C474.531 131.658 476.329 131 478.5 131C480.671 131 482.458 131.668 483.862 133.004C485.287 134.32 486 135.996 486 138.031C486 140.066 485.287 141.742 483.862 143.057C482.458 144.352 480.671 145 478.5 145C476.329 145 474.531 144.352 473.105 143.057C471.702 141.742 471 140.066 471 138.031C471 135.975 471.702 134.289 473.105 132.974Z" fill="#00A858"/>
<defs>
<linearGradient id="paint0_linear_3_56" x1="375.892" y1="116.276" x2="466.048" y2="29.156" gradientUnits="userSpaceOnUse">
<stop stop-color="#FCD618"/>
<stop offset="1" stop-color="#F15F32"/>
</linearGradient>
</defs>
</svg>
