<svg width="1440" height="163" viewBox="0 0 1440 163" fill="none" xmlns="http://www.w3.org/2000/svg">
<g clip-path="url(#clip0_9_3)">
<path d="M0 48.9L40 40.75C80 32.6 160 16.3 240 32.6C320 48.9 400 97.8 480 111.364C560 125.161 640 103.039 720 92.3861C800 81.5 880 81.5 960 86.9139C1040 92.5607 1120 103.039 1200 97.8C1280 92.5607 1360 70.4393 1440 65.2C1520 59.9607 1600 70.4393 1680 65.2C1760 59.9607 1840 37.8393 1920 32.6C2000 27.3607 2080 37.8393 2160 43.4861C2240 48.9 2320 48.9 2400 54.3139C2480 59.9607 2560 70.4393 2640 84.2361C2720 97.8 2800 114.1 2880 103.214C2960 92.5607 3040 54.1393 3120 51.6361C3200 48.9 3280 81.5 3360 100.536C3440 119.339 3520 125.161 3600 111.364C3680 97.8 3760 65.2 3840 67.9361C3920 70.4393 4000 108.861 4080 127.664C4160 146.7 4240 146.7 4320 135.814C4400 125.161 4480 103.039 4560 84.2361C4640 65.2 4720 48.9 4800 54.3139C4880 59.9607 4960 86.7393 5040 81.5C5120 76.2607 5200 37.8393 5280 35.3361C5360 32.6 5440 65.2 5520 78.7639C5600 92.5607 5680 86.7393 5720 84.2361L5760 81.5V163H5720C5680 163 5600 163 5520 163C5440 163 5360 163 5280 163C5200 163 5120 163 5040 163C4960 163 4880 163 4800 163C4720 163 4640 163 4560 163C4480 163 4400 163 4320 163C4240 163 4160 163 4080 163C4000 163 3920 163 3840 163C3760 163 3680 163 3600 163C3520 163 3440 163 3360 163C3280 163 3200 163 3120 163C3040 163 2960 163 2880 163C2800 163 2720 163 2640 163C2560 163 2480 163 2400 163C2320 163 2240 163 2160 163C2080 163 2000 163 1920 163C1840 163 1760 163 1680 163C1600 163 1520 163 1440 163C1360 163 1280 163 1200 163C1120 163 1040 163 960 163C880 163 800 163 720 163C640 163 560 163 480 163C400 163 320 163 240 163C160 163 80 163 40 163H0V48.9Z" fill="url(#paint0_linear_9_3)"/>
<path opacity="0.9" d="M0 97.8L40 95.0639C80 92.5607 160 86.7393 240 70.6139C320 54.1393 400 27.3607 480 19.0361C560 11.0607 640 21.5393 720 32.6C800 43.6607 880 54.1393 960 57.05C1040 59.9607 1120 54.1393 1200 62.4639C1280 70.4393 1360 92.5607 1440 92.3861C1520 92.5607 1600 70.4393 1680 76.0861C1760 81.5 1840 114.1 1920 116.836C2000 119.339 2080 92.5607 2160 70.6139C2240 48.9 2320 32.6 2400 43.4861C2480 54.1393 2560 92.5607 2640 103.214C2720 114.1 2800 97.8 2880 86.9139C2960 76.2607 3040 70.4393 3120 65.2C3200 59.9607 3280 54.1393 3360 54.3139C3440 54.1393 3520 59.9607 3600 54.3139C3680 48.9 3760 32.6 3840 46.1639C3920 59.9607 4000 103.039 4080 116.836C4160 130.4 4240 114.1 4320 97.8C4400 81.5 4480 65.2 4560 65.2C4640 65.2 4720 81.5 4800 84.2361C4880 86.7393 4960 76.2607 5040 76.0861C5120 76.2607 5200 86.7393 5280 86.9139C5360 86.7393 5440 76.2607 5520 70.6139C5600 65.2 5680 65.2 5720 65.2H5760V163H5720C5680 163 5600 163 5520 163C5440 163 5360 163 5280 163C5200 163 5120 163 5040 163C4960 163 4880 163 4800 163C4720 163 4640 163 4560 163C4480 163 4400 163 4320 163C4240 163 4160 163 4080 163C4000 163 3920 163 3840 163C3760 163 3680 163 3600 163C3520 163 3440 163 3360 163C3280 163 3200 163 3120 163C3040 163 2960 163 2880 163C2800 163 2720 163 2640 163C2560 163 2480 163 2400 163C2320 163 2240 163 2160 163C2080 163 2000 163 1920 163C1840 163 1760 163 1680 163C1600 163 1520 163 1440 163C1360 163 1280 163 1200 163C1120 163 1040 163 960 163C880 163 800 163 720 163C640 163 560 163 480 163C400 163 320 163 240 163C160 163 80 163 40 163H0V97.8Z" fill="white"/>
</g>
<defs>
<linearGradient id="paint0_linear_9_3" x1="0" y1="163" x2="0" y2="25.6256" gradientUnits="userSpaceOnUse">
<stop stop-color="white"/>
<stop offset="1" stop-color="white" stop-opacity="0.25"/>
</linearGradient>
<clipPath id="clip0_9_3">
<rect width="1440" height="163" fill="white"/>
</clipPath>
</defs>
</svg>
