<?xml version="1.0" standalone="no"?>
<svg xmlns:xlink="http://www.w3.org/1999/xlink" id="wave" style="transform:rotate(0deg); transition: 0.3s" viewBox="0 0 1440 280" version="1.1" xmlns="http://www.w3.org/2000/svg"><defs><linearGradient id="sw-gradient-0" x1="0" x2="0" y1="1" y2="0"><stop stop-color="rgba(255, 255, 255, 1)" offset="0%"/><stop stop-color="rgba(253.008, 253.008, 253.008, 1)" offset="100%"/></linearGradient></defs><path style="transform:translate(0, 0px); opacity:1" fill="url(#sw-gradient-0)" d="M0,84L40,70C80,56,160,28,240,56C320,84,400,168,480,191.3C560,215,640,177,720,158.7C800,140,880,140,960,149.3C1040,159,1120,177,1200,168C1280,159,1360,121,1440,112C1520,103,1600,121,1680,112C1760,103,1840,65,1920,56C2000,47,2080,65,2160,74.7C2240,84,2320,84,2400,93.3C2480,103,2560,121,2640,144.7C2720,168,2800,196,2880,177.3C2960,159,3040,93,3120,88.7C3200,84,3280,140,3360,172.7C3440,205,3520,215,3600,191.3C3680,168,3760,112,3840,116.7C3920,121,4000,187,4080,219.3C4160,252,4240,252,4320,233.3C4400,215,4480,177,4560,144.7C4640,112,4720,84,4800,93.3C4880,103,4960,149,5040,140C5120,131,5200,65,5280,60.7C5360,56,5440,112,5520,135.3C5600,159,5680,149,5720,144.7L5760,140L5760,280L5720,280C5680,280,5600,280,5520,280C5440,280,5360,280,5280,280C5200,280,5120,280,5040,280C4960,280,4880,280,4800,280C4720,280,4640,280,4560,280C4480,280,4400,280,4320,280C4240,280,4160,280,4080,280C4000,280,3920,280,3840,280C3760,280,3680,280,3600,280C3520,280,3440,280,3360,280C3280,280,3200,280,3120,280C3040,280,2960,280,2880,280C2800,280,2720,280,2640,280C2560,280,2480,280,2400,280C2320,280,2240,280,2160,280C2080,280,2000,280,1920,280C1840,280,1760,280,1680,280C1600,280,1520,280,1440,280C1360,280,1280,280,1200,280C1120,280,1040,280,960,280C880,280,800,280,720,280C640,280,560,280,480,280C400,280,320,280,240,280C160,280,80,280,40,280L0,280Z"/><defs><linearGradient id="sw-gradient-1" x1="0" x2="0" y1="1" y2="0"><stop stop-color="rgba(255, 255, 255, 1)" offset="0%"/><stop stop-color="rgba(255, 255, 255, 0.5)" offset="100%"/></linearGradient></defs><path style="transform:translate(0, 50px); opacity:0.9" fill="url(#sw-gradient-1)" d="M0,168L40,163.3C80,159,160,149,240,121.3C320,93,400,47,480,32.7C560,19,640,37,720,56C800,75,880,93,960,98C1040,103,1120,93,1200,107.3C1280,121,1360,159,1440,158.7C1520,159,1600,121,1680,130.7C1760,140,1840,196,1920,200.7C2000,205,2080,159,2160,121.3C2240,84,2320,56,2400,74.7C2480,93,2560,159,2640,177.3C2720,196,2800,168,2880,149.3C2960,131,3040,121,3120,112C3200,103,3280,93,3360,93.3C3440,93,3520,103,3600,93.3C3680,84,3760,56,3840,79.3C3920,103,4000,177,4080,200.7C4160,224,4240,196,4320,168C4400,140,4480,112,4560,112C4640,112,4720,140,4800,144.7C4880,149,4960,131,5040,130.7C5120,131,5200,149,5280,149.3C5360,149,5440,131,5520,121.3C5600,112,5680,112,5720,112L5760,112L5760,280L5720,280C5680,280,5600,280,5520,280C5440,280,5360,280,5280,280C5200,280,5120,280,5040,280C4960,280,4880,280,4800,280C4720,280,4640,280,4560,280C4480,280,4400,280,4320,280C4240,280,4160,280,4080,280C4000,280,3920,280,3840,280C3760,280,3680,280,3600,280C3520,280,3440,280,3360,280C3280,280,3200,280,3120,280C3040,280,2960,280,2880,280C2800,280,2720,280,2640,280C2560,280,2480,280,2400,280C2320,280,2240,280,2160,280C2080,280,2000,280,1920,280C1840,280,1760,280,1680,280C1600,280,1520,280,1440,280C1360,280,1280,280,1200,280C1120,280,1040,280,960,280C880,280,800,280,720,280C640,280,560,280,480,280C400,280,320,280,240,280C160,280,80,280,40,280L0,280Z"/></svg>